<svg width="835" height="526" viewBox="0 0 835 526" fill="none" xmlns="http://www.w3.org/2000/svg">
<g id="undraw_flying_drone_re_1gur 1" clip-path="url(#clip0_1_38)">
<g id="lefthand">
<path id="Vector" d="M431.972 377.1L431.158 287.483C431.115 282.73 434.314 278.642 438.937 277.542L461.232 272.233C463.42 271.712 465.688 272.212 467.455 273.603C469.222 274.995 470.239 277.083 470.245 279.332L470.511 375.301C470.516 376.922 469.888 378.447 468.744 379.594C467.599 380.742 466.076 381.374 464.455 381.374H436.286C433.929 381.374 431.994 379.457 431.972 377.1H431.972V377.1Z" fill="#2F2E41"/>
<g id="mobile">
<path id="Vector_2" d="M440.109 279.427L442.238 278.916V282.137C442.238 283.166 443.178 283.926 444.158 283.687L452.756 281.594C454.009 281.289 454.893 280.144 454.893 278.826V275.876L459.011 274.887C461.916 274.189 464.703 276.434 464.72 279.486L465.249 372.558C465.271 376.399 462.232 379.525 458.476 379.525H437.213C434.892 379.525 433.005 377.614 432.982 375.241L432.165 289.785C432.117 284.857 435.418 280.554 440.109 279.427L440.109 279.427V279.427Z" fill="#6C63FF"/>
</g>
<path id="uuid-053f2935-349a-4e2e-a802-52ad513a5065-57" d="M450.998 300.084C462.487 296.006 473.903 298.628 476.497 305.94C479.091 313.252 471.88 322.483 460.387 326.56C455.819 328.252 450.911 328.825 446.076 328.231L397.18 344.894L389.85 321.782L438.83 307.81C442.211 304.299 446.384 301.65 450.998 300.084H450.998V300.084Z" fill="#FFB6B6"/>
<path id="Vector_3" d="M433.211 334.688L336.71 379.455L336.468 379.567L258.005 331.658C250.759 327.233 246.355 319.523 246.224 311.032C246.094 302.542 250.26 294.7 257.368 290.055C266.273 284.237 277.846 284.781 286.165 291.41L344.02 337.509L426.012 307.404L433.211 334.688L433.211 334.688V334.688Z" fill="#E6E6E6"/>
</g>
<path id="Vector_4" d="M0 485.795C0 486.455 0.53003 486.985 1.19006 486.985H787.48C788.14 486.985 788.67 486.455 788.67 485.795C788.67 485.135 788.14 484.605 787.48 484.605H1.19006C0.53003 484.605 0 485.135 0 485.795Z" fill="#3F3D56"/>
<g id="Group">
<path id="Vector_5" d="M309.052 299.893L315.519 259.477L271.869 241.693L265.402 303.127L309.052 299.893Z" fill="#FFB6B6"/>
<path id="Vector_6" d="M298.022 272.469C322.605 272.469 342.534 252.54 342.534 227.956C342.534 203.373 322.605 183.444 298.022 183.444C273.438 183.444 253.509 203.373 253.509 227.956C253.509 252.54 273.438 272.469 298.022 272.469Z" fill="#FFB6B6"/>
</g>
<g id="Group_2">
<path id="Vector_7" d="M253.837 517.84C256.747 519.12 259.857 520.34 263.197 521.5C313.067 538.79 370.887 500.81 404.047 473.43C420.757 459.62 431.197 448.5 431.197 448.5L463.917 464.86L485.707 475.75H485.717L489.947 477.88C489.957 477.88 489.967 477.89 489.967 477.89L502.857 484.33L522.797 494.3L525.197 495.5L526.837 495.98L556.197 504.5L562.197 483.5C562.197 483.5 560.147 481.67 556.557 478.5C534.697 459.24 455.807 390.65 435.197 385.5C425.847 383.16 405.897 390.83 385.007 401.07C352.247 417.13 317.197 439.5 317.197 439.5L303.197 419.5L254.997 430.38L236.707 434.51L225.697 437C225.697 437 191.457 490.41 253.837 517.84H253.837H253.837Z" fill="#2F2E41"/>
<path id="Vector_8" d="M554.197 480.5C554.197 480.5 561.197 473.5 565.197 476.5C569.197 479.5 573.197 483.5 573.197 483.5C573.197 483.5 604.197 485.5 605.197 500.5C606.197 515.5 584.197 520.5 584.197 520.5C584.197 520.5 512.197 526.5 512.197 516.5C512.197 506.5 522.799 494.301 522.799 494.301C522.799 494.301 557.197 488.5 554.197 480.5Z" fill="#2F2E41"/>
</g>
<g id="Group_3">
<path id="Vector_9" d="M253.837 517.84C307.637 498.07 354.197 448.5 354.197 448.5L404.047 473.43L445.797 494.3L448.197 495.5L479.197 504.5L485.197 483.5C485.197 483.5 483.147 481.67 479.557 478.5C475.817 475.21 470.407 470.47 463.917 464.86C442.577 446.42 409.457 418.49 385.007 401.07C352.247 417.13 317.197 439.5 317.197 439.5L303.197 419.5L254.997 430.38C245.957 435.82 240.197 439.5 240.197 439.5L236.707 434.51L225.697 437C225.697 437 191.457 490.41 253.837 517.84H253.837V517.84Z" fill="#2F2E41"/>
<path id="Vector_10" d="M477.197 480.5C477.197 480.5 484.197 473.5 488.197 476.5C492.197 479.5 496.197 483.5 496.197 483.5C496.197 483.5 527.197 485.5 528.197 500.5C529.197 515.5 507.197 520.5 507.197 520.5C507.197 520.5 435.197 526.5 435.197 516.5C435.197 506.5 445.799 494.301 445.799 494.301C445.799 494.301 480.197 488.5 477.197 480.5H477.197Z" fill="#2F2E41"/>
</g>
<path id="Vector_11" d="M230.863 360.183C233.022 330.914 244.905 302.676 264.322 280.669L264.513 280.453L315.078 290.566L326.143 323.259C333.194 344.092 331.516 367.28 321.538 386.879L309.219 411.076L313.291 433.474L225.72 437.499L225.157 437.525L230.863 360.183H230.863H230.863Z" fill="#E6E6E6"/>
<g id="drone">
<path id="Vector_12" d="M678.825 90.601H715.31V91.9765C715.31 101.032 707.958 108.384 698.903 108.384H695.232C686.177 108.384 678.825 101.032 678.825 91.9765V90.601V90.601Z" fill="#3F3D56"/>
<path id="Vector_13" d="M795.678 70.549L732.726 57.1331L732.398 53.4718C732.374 53.2006 732.337 52.9311 732.294 52.6628L762.067 39.5517C765.133 34.0328 770.345 37.0989 770.345 37.0989C770.345 37.0989 780.463 38.6319 778.317 28.8206C776.171 19.0093 762.374 26.0612 762.374 26.0612L726.201 37.3279L720.29 23.2874C718.471 18.9656 714.238 16.1553 709.549 16.1553H688.506C684.003 16.1553 679.903 18.7491 677.975 22.8179L671.045 37.4375L634.521 26.0612C634.521 26.0612 620.724 19.0093 618.577 28.8206C616.431 38.6319 626.549 37.0989 626.549 37.0989C626.549 37.0989 631.761 34.0328 634.827 39.5517L663.962 52.3817L663.391 53.5853C662.802 54.8282 662.443 56.163 662.32 57.5271L601.216 70.549C596.073 71.6455 593.207 77.1631 595.269 82.0014L596.71 85.3812C598.803 90.2919 604.979 92.1178 609.248 88.9125C610.763 87.775 611.832 86.1169 611.832 83.7024L663.032 71.7826C666.129 85.368 678.283 95.5066 692.806 95.5066H702.767C717.51 95.5066 729.64 85.112 732.609 71.491L785.062 83.7024C785.062 86.1169 786.132 87.775 787.647 88.9125C791.915 92.1178 798.092 90.2919 800.185 85.3812L801.625 82.0014C803.687 77.1631 800.822 71.6455 795.678 70.549H795.678Z" fill="#3F3D56"/>
<path id="Vector_14" d="M770.805 31.7333C775.547 31.7333 779.39 27.8897 779.39 23.1485C779.39 18.4072 775.547 14.5636 770.805 14.5636C766.064 14.5636 762.221 18.4072 762.221 23.1485C762.221 27.8897 766.064 31.7333 770.805 31.7333Z" fill="#3F3D56"/>
<path id="Vector_15" d="M625.016 32.4998C629.757 32.4998 633.601 28.6563 633.601 23.915C633.601 19.1737 629.757 15.3301 625.016 15.3301C620.275 15.3301 616.431 19.1737 616.431 23.915C616.431 28.6563 620.275 32.4998 625.016 32.4998Z" fill="#3F3D56"/>
</g>
<g id="wings">
<path id="Vector_16" d="M766.36 15.4182L735.393 0C735.393 0 732.189 0.13761 733.638 1.75512C735.086 3.37263 768.506 19.0093 768.506 19.0093L766.36 15.4182H766.36V15.4182Z" fill="#6C63FF"/>
<path id="Vector_17" d="M774.638 21.7687C774.638 21.7687 776.171 27.5942 781.383 30.9668C786.595 34.3394 815.723 42.6177 815.723 42.6177L820.015 39.8583L787.822 22.0753L777.091 20.8489L774.638 21.7687H774.638V21.7687Z" fill="#6C63FF"/>
<path id="Vector_18" d="M795.118 73.4544C795.118 73.4544 800.858 75.2806 806.498 72.6861C812.138 70.0916 834.732 49.9311 834.732 49.9311L834.701 44.8284L802.439 62.4861L795.655 70.8905L795.118 73.4544L795.118 73.4544V73.4544Z" fill="#6C63FF"/>
<path id="Vector_19" d="M797.952 74.1743C797.952 74.1743 793.128 70.5662 786.949 71.1671C780.77 71.768 752.814 83.4019 752.814 83.4019L751.169 88.2324L787.438 82.1341L796.604 76.4201L797.952 74.1743H797.952V74.1743Z" fill="#6C63FF"/>
<path id="Vector_20" d="M630.535 15.4182L661.502 0C661.502 0 664.705 0.13761 663.257 1.75512C661.808 3.37263 628.389 19.0093 628.389 19.0093L630.535 15.4182V15.4182Z" fill="#6C63FF"/>
<path id="Vector_21" d="M622.257 21.7687C622.257 21.7687 620.724 27.5942 615.511 30.9668C610.299 34.3394 581.172 42.6177 581.172 42.6177L576.88 39.8583L609.073 22.0753L619.804 20.8489L622.257 21.7687H622.257V21.7687Z" fill="#6C63FF"/>
<path id="Vector_22" d="M601.777 73.4544C601.777 73.4544 596.036 75.2806 590.396 72.6861C584.756 70.0916 562.163 49.9311 562.163 49.9311L562.193 44.8284L594.455 62.4861L601.239 70.8905L601.777 73.4544L601.777 73.4544V73.4544Z" fill="#6C63FF"/>
<path id="Vector_23" d="M598.942 74.1743C598.942 74.1743 603.766 70.5662 609.945 71.1671C616.124 71.768 644.081 83.4019 644.081 83.4019L645.726 88.2324L609.457 82.1341L600.291 76.4201L598.942 74.1743H598.942V74.1743Z" fill="#6C63FF"/>
</g>
<g id="Group_4">
<path id="uuid-8461fea7-6bfc-4349-95b4-294222230932-58" d="M470.042 340.321C481.993 337.917 492.921 342.135 494.449 349.741C495.978 357.348 487.529 365.46 475.573 367.863C470.81 368.888 465.871 368.758 461.169 367.484L410.402 377.029L406.431 353.11L456.899 346.239C460.745 343.245 465.251 341.216 470.042 340.321H470.042V340.321Z" fill="#FFB6B6"/>
<path id="Vector_24" d="M274.52 344.149C267.976 338.74 264.712 330.482 265.79 322.06C266.868 313.637 272.106 306.467 279.802 302.879C289.442 298.384 300.82 300.568 308.113 308.312L358.83 362.164L443.73 344.131L444.267 344.016L447.518 372.046L345.378 402.723L274.52 344.149V344.149Z" fill="#E6E6E6"/>
</g>
<path id="Vector_25" d="M323.92 186.279C332.174 192.547 337.981 201.633 339.442 211.893C340.517 219.442 339.497 228.375 332.697 236.614C323.758 247.445 322.31 267.519 322.773 283.128C323.059 292.759 314.702 300.406 305.132 299.282C284.712 296.883 274.676 347.01 259.697 354C242.456 362.046 227.697 354 227.697 354C227.697 354 232.697 298 243.697 282C250.61 271.946 251.573 235.439 252.821 220.844C254.157 205.22 262.363 190.824 275.572 182.375C287.683 174.628 304.27 171.358 323.92 186.279V186.279V186.279Z" fill="#2F2E41"/>
</g>
<defs>
<clipPath id="clip0_1_38">
<rect width="834.732" height="525.852" fill="white"/>
</clipPath>
</defs>
</svg>
